# xmcd
#
# Track frame offsets:
# 150
# 17727
# 33632
# 55412
# 74980
# 95980
# 116162
# 141572
# 164285
# 175207
# 190237
# 202162
# 223522
# 240842
#
# Disc length: 3464 seconds
#
#
# Revision: 0
# Processed by: cddbd v1.5.2PL0 Copyright (c) Steve Scherf et al.
# Submitted via: FreeRIP 2.96 
#
DISCID=e10d860e
DTITLE=Padre Antonio Maria - Festa da Fé
DYEAR=0200
DGENRE=Gospel
TTITLE0=O Senhor é Rei
TTITLE1=Quem é que vai
TTITLE2=Nossa Senhora
TTITLE3=Cura, Senhor
TTITLE4=Jesus Cristo
TTITLE5=Ninguém te ama como eu
TTITLE6=Aleluia
TTITLE7=Mãe Peregrina
TTITLE8=Eu sou feliz
TTITLE9=Pai de Misericordia
TTITLE10=Jesus é o Rei
TTITLE11=Pegadas na areia
TTITLE12=Por que amo Maria?
TTITLE13=Vai sacudir, Vai abalar
EXTD=
EXTT0=
EXTT1=
EXTT2=
EXTT3=
EXTT4=
EXTT5=
EXTT6=
EXTT7=
EXTT8=
EXTT9=
EXTT10=
EXTT11=
EXTT12=
EXTT13=
PLAYORDER=
